<?xml version="1.0" encoding="UTF-8" standalone="no"?>
<!DOCTYPE svg PUBLIC "-//W3C//DTD SVG 1.1//EN"
 "http://www.w3.org/Graphics/SVG/1.1/DTD/svg11.dtd">
<!-- Generated by graphviz version 3.0.0 (20220226.1711)
 -->
<!-- Title: dependencies Pages: 1 -->
<svg width="266pt" height="247pt"
 viewBox="0.00 0.00 266.00 246.80" xmlns="http://www.w3.org/2000/svg" xmlns:xlink="http://www.w3.org/1999/xlink">
<g id="graph0" class="graph" transform="scale(1 1) rotate(0) translate(4 242.8)">
<title>dependencies</title>
<polygon fill="white" stroke="transparent" points="-4,4 -4,-242.8 262,-242.8 262,4 -4,4"/>
<text text-anchor="middle" x="129" y="-8.2" font-family="sans-serif" font-size="14.00">dependencies</text>
<g id="clust1" class="cluster">
<title>cluster_TriggerTimeSlotModule</title>
<polygon fill="none" stroke="black" stroke-dasharray="1,5" points="8,-32.8 8,-230.8 250,-230.8 250,-32.8 8,-32.8"/>
</g>
<g id="clust4" class="cluster">
<title>cluster_TriggerTimeSlotModule_exports</title>
<polygon fill="none" stroke="black" points="43,-170.8 43,-222.8 215,-222.8 215,-170.8 43,-170.8"/>
</g>
<g id="clust6" class="cluster">
<title>cluster_TriggerTimeSlotModule_providers</title>
<polygon fill="none" stroke="black" points="16,-40.8 16,-92.8 242,-92.8 242,-40.8 16,-40.8"/>
</g>
<!-- TriggerTimeSlotService  -->
<g id="node1" class="node">
<title>TriggerTimeSlotService </title>
<polygon fill="#fb8072" stroke="black" points="206.57,-214.8 51.43,-214.8 51.43,-178.8 206.57,-178.8 206.57,-214.8"/>
<text text-anchor="middle" x="129" y="-192.6" font-family="Times,serif" font-size="14.00">TriggerTimeSlotService </text>
</g>
<!-- TriggerTimeSlotModule -->
<g id="node2" class="node">
<title>TriggerTimeSlotModule</title>
<polygon fill="#8dd3c7" stroke="black" points="205.64,-149.8 202.64,-153.8 181.64,-153.8 178.64,-149.8 52.36,-149.8 52.36,-113.8 205.64,-113.8 205.64,-149.8"/>
<text text-anchor="middle" x="129" y="-127.6" font-family="Times,serif" font-size="14.00">TriggerTimeSlotModule</text>
</g>
<!-- TriggerTimeSlotModule&#45;&gt;TriggerTimeSlotService  -->
<g id="edge1" class="edge">
<title>TriggerTimeSlotModule&#45;&gt;TriggerTimeSlotService </title>
<path fill="none" stroke="black" stroke-dasharray="5,2" d="M129,-149.91C129,-149.91 129,-168.79 129,-168.79"/>
<polygon fill="black" stroke="black" points="125.5,-168.79 129,-178.79 132.5,-168.79 125.5,-168.79"/>
</g>
<!-- TriggerTimeSlotService -->
<g id="node3" class="node">
<title>TriggerTimeSlotService</title>
<ellipse fill="#fdb462" stroke="black" cx="129" cy="-66.8" rx="104.79" ry="18"/>
<text text-anchor="middle" x="129" y="-62.6" font-family="Times,serif" font-size="14.00">TriggerTimeSlotService</text>
</g>
<!-- TriggerTimeSlotService&#45;&gt;TriggerTimeSlotModule -->
<g id="edge2" class="edge">
<title>TriggerTimeSlotService&#45;&gt;TriggerTimeSlotModule</title>
<path fill="none" stroke="black" d="M129,-84.91C129,-84.91 129,-103.79 129,-103.79"/>
<polygon fill="black" stroke="black" points="125.5,-103.79 129,-113.79 132.5,-103.79 125.5,-103.79"/>
</g>
</g>
</svg>
