<?xml version="1.0" encoding="UTF-8" standalone="no"?>
<!DOCTYPE svg PUBLIC "-//W3C//DTD SVG 1.1//EN"
 "http://www.w3.org/Graphics/SVG/1.1/DTD/svg11.dtd">
<!-- Generated by graphviz version 3.0.0 (20220226.1711)
 -->
<!-- Title: dependencies Pages: 1 -->
<svg width="1210pt" height="174pt"
 viewBox="0.00 0.00 1210.00 173.80" xmlns="http://www.w3.org/2000/svg" xmlns:xlink="http://www.w3.org/1999/xlink">
<g id="graph0" class="graph" transform="scale(1 1) rotate(0) translate(4 169.8)">
<title>dependencies</title>
<polygon fill="white" stroke="transparent" points="-4,4 -4,-169.8 1206,-169.8 1206,4 -4,4"/>
<text text-anchor="middle" x="601" y="-8.2" font-family="sans-serif" font-size="14.00">dependencies</text>
<g id="clust1" class="cluster">
<title>cluster_AppModule</title>
<polygon fill="none" stroke="black" stroke-dasharray="1,5" points="8,-32.8 8,-157.8 1194,-157.8 1194,-32.8 8,-32.8"/>
</g>
<g id="clust3" class="cluster">
<title>cluster_AppModule_imports</title>
<polygon fill="none" stroke="black" points="16,-40.8 16,-92.8 1186,-92.8 1186,-40.8 16,-40.8"/>
</g>
<!-- AuthorizationModule -->
<g id="node1" class="node">
<title>AuthorizationModule</title>
<polygon fill="#8dd3c7" stroke="black" points="1177.81,-84.8 1174.81,-88.8 1153.81,-88.8 1150.81,-84.8 1040.19,-84.8 1040.19,-48.8 1177.81,-48.8 1177.81,-84.8"/>
<text text-anchor="middle" x="1109" y="-62.6" font-family="Times,serif" font-size="14.00">AuthorizationModule</text>
</g>
<!-- AppModule -->
<g id="node10" class="node">
<title>AppModule</title>
<polygon fill="#8dd3c7" stroke="black" points="653.66,-149.8 650.66,-153.8 629.66,-153.8 626.66,-149.8 570.34,-149.8 570.34,-113.8 653.66,-113.8 653.66,-149.8"/>
<text text-anchor="middle" x="612" y="-127.6" font-family="Times,serif" font-size="14.00">AppModule</text>
</g>
<!-- AuthorizationModule&#45;&gt;AppModule -->
<g id="edge1" class="edge">
<title>AuthorizationModule&#45;&gt;AppModule</title>
<path fill="none" stroke="black" d="M1109,-84.81C1109,-107.29 1109,-142.8 1109,-142.8 1109,-142.8 663.95,-142.8 663.95,-142.8"/>
<polygon fill="black" stroke="black" points="663.95,-139.3 653.95,-142.8 663.95,-146.3 663.95,-139.3"/>
</g>
<!-- ContactModule -->
<g id="node2" class="node">
<title>ContactModule</title>
<polygon fill="#8dd3c7" stroke="black" points="1022.6,-84.8 1019.6,-88.8 998.6,-88.8 995.6,-84.8 919.4,-84.8 919.4,-48.8 1022.6,-48.8 1022.6,-84.8"/>
<text text-anchor="middle" x="971" y="-62.6" font-family="Times,serif" font-size="14.00">ContactModule</text>
</g>
<!-- ContactModule&#45;&gt;AppModule -->
<g id="edge2" class="edge">
<title>ContactModule&#45;&gt;AppModule</title>
<path fill="none" stroke="black" d="M971,-84.93C971,-105.37 971,-135.8 971,-135.8 971,-135.8 663.88,-135.8 663.88,-135.8"/>
<polygon fill="black" stroke="black" points="663.88,-132.3 653.88,-135.8 663.88,-139.3 663.88,-132.3"/>
</g>
<!-- FileModule -->
<g id="node3" class="node">
<title>FileModule</title>
<polygon fill="#8dd3c7" stroke="black" points="901.83,-84.8 898.83,-88.8 877.83,-88.8 874.83,-84.8 820.17,-84.8 820.17,-48.8 901.83,-48.8 901.83,-84.8"/>
<text text-anchor="middle" x="861" y="-62.6" font-family="Times,serif" font-size="14.00">FileModule</text>
</g>
<!-- FileModule&#45;&gt;AppModule -->
<g id="edge3" class="edge">
<title>FileModule&#45;&gt;AppModule</title>
<path fill="none" stroke="black" d="M861,-85.07C861,-103.36 861,-128.8 861,-128.8 861,-128.8 663.68,-128.8 663.68,-128.8"/>
<polygon fill="black" stroke="black" points="663.68,-125.3 653.68,-128.8 663.68,-132.3 663.68,-125.3"/>
</g>
<!-- MessageModule -->
<g id="node4" class="node">
<title>MessageModule</title>
<polygon fill="#8dd3c7" stroke="black" points="802.04,-84.8 799.04,-88.8 778.04,-88.8 775.04,-84.8 693.96,-84.8 693.96,-48.8 802.04,-48.8 802.04,-84.8"/>
<text text-anchor="middle" x="748" y="-62.6" font-family="Times,serif" font-size="14.00">MessageModule</text>
</g>
<!-- MessageModule&#45;&gt;AppModule -->
<g id="edge4" class="edge">
<title>MessageModule&#45;&gt;AppModule</title>
<path fill="none" stroke="black" d="M748,-84.81C748,-100.85 748,-121.8 748,-121.8 748,-121.8 663.91,-121.8 663.91,-121.8"/>
<polygon fill="black" stroke="black" points="663.91,-118.3 653.91,-121.8 663.91,-125.3 663.91,-118.3"/>
</g>
<!-- NotificationModule -->
<g id="node5" class="node">
<title>NotificationModule</title>
<polygon fill="#8dd3c7" stroke="black" points="675.7,-84.8 672.7,-88.8 651.7,-88.8 648.7,-84.8 548.3,-84.8 548.3,-48.8 675.7,-48.8 675.7,-84.8"/>
<text text-anchor="middle" x="612" y="-62.6" font-family="Times,serif" font-size="14.00">NotificationModule</text>
</g>
<!-- NotificationModule&#45;&gt;AppModule -->
<g id="edge5" class="edge">
<title>NotificationModule&#45;&gt;AppModule</title>
<path fill="none" stroke="black" d="M612,-84.91C612,-84.91 612,-103.79 612,-103.79"/>
<polygon fill="black" stroke="black" points="608.5,-103.79 612,-113.79 615.5,-103.79 608.5,-103.79"/>
</g>
<!-- QueueModule -->
<g id="node6" class="node">
<title>QueueModule</title>
<polygon fill="#8dd3c7" stroke="black" points="530.09,-84.8 527.09,-88.8 506.09,-88.8 503.09,-84.8 433.91,-84.8 433.91,-48.8 530.09,-48.8 530.09,-84.8"/>
<text text-anchor="middle" x="482" y="-62.6" font-family="Times,serif" font-size="14.00">QueueModule</text>
</g>
<!-- QueueModule&#45;&gt;AppModule -->
<g id="edge6" class="edge">
<title>QueueModule&#45;&gt;AppModule</title>
<path fill="none" stroke="black" d="M482,-84.81C482,-100.85 482,-121.8 482,-121.8 482,-121.8 560.15,-121.8 560.15,-121.8"/>
<polygon fill="black" stroke="black" points="560.15,-125.3 570.15,-121.8 560.15,-118.3 560.15,-125.3"/>
</g>
<!-- SchedulerModule -->
<g id="node7" class="node">
<title>SchedulerModule</title>
<polygon fill="#8dd3c7" stroke="black" points="415.53,-84.8 412.53,-88.8 391.53,-88.8 388.53,-84.8 300.47,-84.8 300.47,-48.8 415.53,-48.8 415.53,-84.8"/>
<text text-anchor="middle" x="358" y="-62.6" font-family="Times,serif" font-size="14.00">SchedulerModule</text>
</g>
<!-- SchedulerModule&#45;&gt;AppModule -->
<g id="edge7" class="edge">
<title>SchedulerModule&#45;&gt;AppModule</title>
<path fill="none" stroke="black" d="M358,-85.07C358,-103.36 358,-128.8 358,-128.8 358,-128.8 560.06,-128.8 560.06,-128.8"/>
<polygon fill="black" stroke="black" points="560.06,-132.3 570.06,-128.8 560.06,-125.3 560.06,-132.3"/>
</g>
<!-- TriggerTimeSlotModule -->
<g id="node8" class="node">
<title>TriggerTimeSlotModule</title>
<polygon fill="#8dd3c7" stroke="black" points="281.64,-84.8 278.64,-88.8 257.64,-88.8 254.64,-84.8 128.36,-84.8 128.36,-48.8 281.64,-48.8 281.64,-84.8"/>
<text text-anchor="middle" x="205" y="-62.6" font-family="Times,serif" font-size="14.00">TriggerTimeSlotModule</text>
</g>
<!-- TriggerTimeSlotModule&#45;&gt;AppModule -->
<g id="edge8" class="edge">
<title>TriggerTimeSlotModule&#45;&gt;AppModule</title>
<path fill="none" stroke="black" d="M205,-84.93C205,-105.37 205,-135.8 205,-135.8 205,-135.8 559.98,-135.8 559.98,-135.8"/>
<polygon fill="black" stroke="black" points="559.98,-139.3 569.98,-135.8 559.98,-132.3 559.98,-139.3"/>
</g>
<!-- UserModule -->
<g id="node9" class="node">
<title>UserModule</title>
<polygon fill="#8dd3c7" stroke="black" points="109.99,-84.8 106.99,-88.8 85.99,-88.8 82.99,-84.8 24.01,-84.8 24.01,-48.8 109.99,-48.8 109.99,-84.8"/>
<text text-anchor="middle" x="67" y="-62.6" font-family="Times,serif" font-size="14.00">UserModule</text>
</g>
<!-- UserModule&#45;&gt;AppModule -->
<g id="edge9" class="edge">
<title>UserModule&#45;&gt;AppModule</title>
<path fill="none" stroke="black" d="M67,-84.81C67,-107.29 67,-142.8 67,-142.8 67,-142.8 560.14,-142.8 560.14,-142.8"/>
<polygon fill="black" stroke="black" points="560.14,-146.3 570.14,-142.8 560.14,-139.3 560.14,-146.3"/>
</g>
</g>
</svg>
