<?xml version="1.0" encoding="UTF-8" standalone="no"?>
<!DOCTYPE svg PUBLIC "-//W3C//DTD SVG 1.1//EN"
 "http://www.w3.org/Graphics/SVG/1.1/DTD/svg11.dtd">
<!-- Generated by graphviz version 3.0.0 (20220226.1711)
 -->
<!-- Title: dependencies Pages: 1 -->
<svg width="450pt" height="247pt"
 viewBox="0.00 0.00 450.00 246.80" xmlns="http://www.w3.org/2000/svg" xmlns:xlink="http://www.w3.org/1999/xlink">
<g id="graph0" class="graph" transform="scale(1 1) rotate(0) translate(4 242.8)">
<title>dependencies</title>
<polygon fill="white" stroke="transparent" points="-4,4 -4,-242.8 446,-242.8 446,4 -4,4"/>
<text text-anchor="middle" x="221" y="-8.2" font-family="sans-serif" font-size="14.00">dependencies</text>
<g id="clust1" class="cluster">
<title>cluster_NotificationModule</title>
<polygon fill="none" stroke="black" stroke-dasharray="1,5" points="8,-32.8 8,-230.8 434,-230.8 434,-32.8 8,-32.8"/>
</g>
<g id="clust6" class="cluster">
<title>cluster_NotificationModule_providers</title>
<polygon fill="none" stroke="black" points="236,-40.8 236,-92.8 426,-92.8 426,-40.8 236,-40.8"/>
</g>
<g id="clust4" class="cluster">
<title>cluster_NotificationModule_exports</title>
<polygon fill="none" stroke="black" points="106,-170.8 106,-222.8 252,-222.8 252,-170.8 106,-170.8"/>
</g>
<g id="clust3" class="cluster">
<title>cluster_NotificationModule_imports</title>
<polygon fill="none" stroke="black" points="16,-40.8 16,-92.8 228,-92.8 228,-40.8 16,-40.8"/>
</g>
<!-- FileModule -->
<g id="node1" class="node">
<title>FileModule</title>
<polygon fill="#8dd3c7" stroke="black" points="219.83,-84.8 216.83,-88.8 195.83,-88.8 192.83,-84.8 138.17,-84.8 138.17,-48.8 219.83,-48.8 219.83,-84.8"/>
<text text-anchor="middle" x="179" y="-62.6" font-family="Times,serif" font-size="14.00">FileModule</text>
</g>
<!-- NotificationModule -->
<g id="node3" class="node">
<title>NotificationModule</title>
<polygon fill="#8dd3c7" stroke="black" points="242.7,-149.8 239.7,-153.8 218.7,-153.8 215.7,-149.8 115.3,-149.8 115.3,-113.8 242.7,-113.8 242.7,-149.8"/>
<text text-anchor="middle" x="179" y="-127.6" font-family="Times,serif" font-size="14.00">NotificationModule</text>
</g>
<!-- FileModule&#45;&gt;NotificationModule -->
<g id="edge1" class="edge">
<title>FileModule&#45;&gt;NotificationModule</title>
<path fill="none" stroke="black" d="M179,-84.91C179,-84.91 179,-103.79 179,-103.79"/>
<polygon fill="black" stroke="black" points="175.5,-103.79 179,-113.79 182.5,-103.79 175.5,-103.79"/>
</g>
<!-- QueueModule -->
<g id="node2" class="node">
<title>QueueModule</title>
<polygon fill="#8dd3c7" stroke="black" points="120.09,-84.8 117.09,-88.8 96.09,-88.8 93.09,-84.8 23.91,-84.8 23.91,-48.8 120.09,-48.8 120.09,-84.8"/>
<text text-anchor="middle" x="72" y="-62.6" font-family="Times,serif" font-size="14.00">QueueModule</text>
</g>
<!-- QueueModule&#45;&gt;NotificationModule -->
<g id="edge2" class="edge">
<title>QueueModule&#45;&gt;NotificationModule</title>
<path fill="none" stroke="black" d="M120.25,-66.8C125.62,-66.8 129.19,-66.8 129.19,-66.8 129.19,-66.8 129.19,-103.69 129.19,-103.69"/>
<polygon fill="black" stroke="black" points="125.69,-103.69 129.19,-113.69 132.69,-103.69 125.69,-103.69"/>
</g>
<!-- NotificationService  -->
<g id="node4" class="node">
<title>NotificationService </title>
<polygon fill="#fb8072" stroke="black" points="243.63,-214.8 114.37,-214.8 114.37,-178.8 243.63,-178.8 243.63,-214.8"/>
<text text-anchor="middle" x="179" y="-192.6" font-family="Times,serif" font-size="14.00">NotificationService </text>
</g>
<!-- NotificationModule&#45;&gt;NotificationService  -->
<g id="edge3" class="edge">
<title>NotificationModule&#45;&gt;NotificationService </title>
<path fill="none" stroke="black" stroke-dasharray="5,2" d="M179,-149.91C179,-149.91 179,-168.79 179,-168.79"/>
<polygon fill="black" stroke="black" points="175.5,-168.79 179,-178.79 182.5,-168.79 175.5,-168.79"/>
</g>
<!-- NotificationService -->
<g id="node5" class="node">
<title>NotificationService</title>
<ellipse fill="#fdb462" stroke="black" cx="331" cy="-66.8" rx="86.81" ry="18"/>
<text text-anchor="middle" x="331" y="-62.6" font-family="Times,serif" font-size="14.00">NotificationService</text>
</g>
<!-- NotificationService&#45;&gt;NotificationModule -->
<g id="edge4" class="edge">
<title>NotificationService&#45;&gt;NotificationModule</title>
<path fill="none" stroke="black" d="M244.19,-66.8C236.26,-66.8 231.13,-66.8 231.13,-66.8 231.13,-66.8 231.13,-103.69 231.13,-103.69"/>
<polygon fill="black" stroke="black" points="227.63,-103.69 231.13,-113.69 234.63,-103.69 227.63,-103.69"/>
</g>
</g>
</svg>
