<?xml version="1.0" encoding="UTF-8" standalone="no"?>
<!DOCTYPE svg PUBLIC "-//W3C//DTD SVG 1.1//EN"
 "http://www.w3.org/Graphics/SVG/1.1/DTD/svg11.dtd">
<!-- Generated by graphviz version 3.0.0 (20220226.1711)
 -->
<!-- Title: dependencies Pages: 1 -->
<svg width="417pt" height="247pt"
 viewBox="0.00 0.00 417.00 246.80" xmlns="http://www.w3.org/2000/svg" xmlns:xlink="http://www.w3.org/1999/xlink">
<g id="graph0" class="graph" transform="scale(1 1) rotate(0) translate(4 242.8)">
<title>dependencies</title>
<polygon fill="white" stroke="transparent" points="-4,4 -4,-242.8 413,-242.8 413,4 -4,4"/>
<text text-anchor="middle" x="204.5" y="-8.2" font-family="sans-serif" font-size="14.00">dependencies</text>
<g id="clust1" class="cluster">
<title>cluster_AuthorizationModule</title>
<polygon fill="none" stroke="black" stroke-dasharray="1,5" points="8,-32.8 8,-230.8 401,-230.8 401,-32.8 8,-32.8"/>
</g>
<g id="clust4" class="cluster">
<title>cluster_AuthorizationModule_exports</title>
<polygon fill="none" stroke="black" points="113,-170.8 113,-222.8 273,-222.8 273,-170.8 113,-170.8"/>
</g>
<g id="clust6" class="cluster">
<title>cluster_AuthorizationModule_providers</title>
<polygon fill="none" stroke="black" points="16,-40.8 16,-92.8 393,-92.8 393,-40.8 16,-40.8"/>
</g>
<!-- AuthenticationService  -->
<g id="node1" class="node">
<title>AuthenticationService </title>
<polygon fill="#fb8072" stroke="black" points="265.18,-214.8 120.82,-214.8 120.82,-178.8 265.18,-178.8 265.18,-214.8"/>
<text text-anchor="middle" x="193" y="-192.6" font-family="Times,serif" font-size="14.00">AuthenticationService </text>
</g>
<!-- AuthorizationModule -->
<g id="node2" class="node">
<title>AuthorizationModule</title>
<polygon fill="#8dd3c7" stroke="black" points="261.81,-149.8 258.81,-153.8 237.81,-153.8 234.81,-149.8 124.19,-149.8 124.19,-113.8 261.81,-113.8 261.81,-149.8"/>
<text text-anchor="middle" x="193" y="-127.6" font-family="Times,serif" font-size="14.00">AuthorizationModule</text>
</g>
<!-- AuthorizationModule&#45;&gt;AuthenticationService  -->
<g id="edge1" class="edge">
<title>AuthorizationModule&#45;&gt;AuthenticationService </title>
<path fill="none" stroke="black" stroke-dasharray="5,2" d="M193,-149.91C193,-149.91 193,-168.79 193,-168.79"/>
<polygon fill="black" stroke="black" points="189.5,-168.79 193,-178.79 196.5,-168.79 189.5,-168.79"/>
</g>
<!-- AuthenticationService -->
<g id="node3" class="node">
<title>AuthenticationService</title>
<ellipse fill="#fdb462" stroke="black" cx="288" cy="-66.8" rx="97.27" ry="18"/>
<text text-anchor="middle" x="288" y="-62.6" font-family="Times,serif" font-size="14.00">AuthenticationService</text>
</g>
<!-- AuthenticationService&#45;&gt;AuthorizationModule -->
<g id="edge2" class="edge">
<title>AuthenticationService&#45;&gt;AuthorizationModule</title>
<path fill="none" stroke="black" d="M226.14,-80.9C226.14,-80.9 226.14,-103.52 226.14,-103.52"/>
<polygon fill="black" stroke="black" points="222.64,-103.52 226.14,-113.52 229.64,-103.52 222.64,-103.52"/>
</g>
<!-- CognitoStrategy -->
<g id="node4" class="node">
<title>CognitoStrategy</title>
<ellipse fill="#fdb462" stroke="black" cx="98" cy="-66.8" rx="74.18" ry="18"/>
<text text-anchor="middle" x="98" y="-62.6" font-family="Times,serif" font-size="14.00">CognitoStrategy</text>
</g>
<!-- CognitoStrategy&#45;&gt;AuthorizationModule -->
<g id="edge3" class="edge">
<title>CognitoStrategy&#45;&gt;AuthorizationModule</title>
<path fill="none" stroke="black" d="M148.34,-80.27C148.34,-80.27 148.34,-103.66 148.34,-103.66"/>
<polygon fill="black" stroke="black" points="144.84,-103.66 148.34,-113.66 151.84,-103.66 144.84,-103.66"/>
</g>
</g>
</svg>
