<?xml version="1.0" encoding="UTF-8" standalone="no"?>
<!DOCTYPE svg PUBLIC "-//W3C//DTD SVG 1.1//EN"
 "http://www.w3.org/Graphics/SVG/1.1/DTD/svg11.dtd">
<!-- Generated by graphviz version 3.0.0 (20220226.1711)
 -->
<!-- Title: dependencies Pages: 1 -->
<svg width="364pt" height="247pt"
 viewBox="0.00 0.00 364.00 246.80" xmlns="http://www.w3.org/2000/svg" xmlns:xlink="http://www.w3.org/1999/xlink">
<g id="graph0" class="graph" transform="scale(1 1) rotate(0) translate(4 242.8)">
<title>dependencies</title>
<polygon fill="white" stroke="transparent" points="-4,4 -4,-242.8 360,-242.8 360,4 -4,4"/>
<text text-anchor="middle" x="178" y="-8.2" font-family="sans-serif" font-size="14.00">dependencies</text>
<g id="clust1" class="cluster">
<title>cluster_FileModule</title>
<polygon fill="none" stroke="black" stroke-dasharray="1,5" points="8,-32.8 8,-230.8 348,-230.8 348,-32.8 8,-32.8"/>
</g>
<g id="clust6" class="cluster">
<title>cluster_FileModule_providers</title>
<polygon fill="none" stroke="black" points="16,-40.8 16,-92.8 340,-92.8 340,-40.8 16,-40.8"/>
</g>
<g id="clust4" class="cluster">
<title>cluster_FileModule_exports</title>
<polygon fill="none" stroke="black" points="37,-170.8 37,-222.8 289,-222.8 289,-170.8 37,-170.8"/>
</g>
<!-- FileCategoryService  -->
<g id="node1" class="node">
<title>FileCategoryService </title>
<polygon fill="#fb8072" stroke="black" points="281.08,-214.8 146.92,-214.8 146.92,-178.8 281.08,-178.8 281.08,-214.8"/>
<text text-anchor="middle" x="214" y="-192.6" font-family="Times,serif" font-size="14.00">FileCategoryService </text>
</g>
<!-- FileService  -->
<g id="node2" class="node">
<title>FileService </title>
<polygon fill="#fb8072" stroke="black" points="128.76,-214.8 45.24,-214.8 45.24,-178.8 128.76,-178.8 128.76,-214.8"/>
<text text-anchor="middle" x="87" y="-192.6" font-family="Times,serif" font-size="14.00">FileService </text>
</g>
<!-- FileModule -->
<g id="node3" class="node">
<title>FileModule</title>
<polygon fill="#8dd3c7" stroke="black" points="148.83,-149.8 145.83,-153.8 124.83,-153.8 121.83,-149.8 67.17,-149.8 67.17,-113.8 148.83,-113.8 148.83,-149.8"/>
<text text-anchor="middle" x="108" y="-127.6" font-family="Times,serif" font-size="14.00">FileModule</text>
</g>
<!-- FileModule&#45;&gt;FileCategoryService  -->
<g id="edge1" class="edge">
<title>FileModule&#45;&gt;FileCategoryService </title>
<path fill="none" stroke="black" stroke-dasharray="5,2" d="M137.67,-149.91C137.67,-169.14 137.67,-196.8 137.67,-196.8 137.67,-196.8 138.58,-196.8 138.58,-196.8"/>
<polygon fill="black" stroke="black" points="136.73,-200.3 146.73,-196.8 136.73,-193.3 136.73,-200.3"/>
</g>
<!-- FileModule&#45;&gt;FileService  -->
<g id="edge2" class="edge">
<title>FileModule&#45;&gt;FileService </title>
<path fill="none" stroke="black" stroke-dasharray="5,2" d="M97.98,-149.91C97.98,-149.91 97.98,-168.79 97.98,-168.79"/>
<polygon fill="black" stroke="black" points="94.48,-168.79 97.98,-178.79 101.48,-168.79 94.48,-168.79"/>
</g>
<!-- FileCategoryService -->
<g id="node4" class="node">
<title>FileCategoryService</title>
<ellipse fill="#fdb462" stroke="black" cx="242" cy="-66.8" rx="90.33" ry="18"/>
<text text-anchor="middle" x="242" y="-62.6" font-family="Times,serif" font-size="14.00">FileCategoryService</text>
</g>
<!-- FileCategoryService&#45;&gt;FileModule -->
<g id="edge3" class="edge">
<title>FileCategoryService&#45;&gt;FileModule</title>
<path fill="none" stroke="black" d="M151.36,-66.8C145.18,-66.8 141.34,-66.8 141.34,-66.8 141.34,-66.8 141.34,-103.69 141.34,-103.69"/>
<polygon fill="black" stroke="black" points="137.84,-103.69 141.34,-113.69 144.84,-103.69 137.84,-103.69"/>
</g>
<!-- FileService -->
<g id="node5" class="node">
<title>FileService</title>
<ellipse fill="#fdb462" stroke="black" cx="79" cy="-66.8" rx="55.03" ry="18"/>
<text text-anchor="middle" x="79" y="-62.6" font-family="Times,serif" font-size="14.00">FileService</text>
</g>
<!-- FileService&#45;&gt;FileModule -->
<g id="edge4" class="edge">
<title>FileService&#45;&gt;FileModule</title>
<path fill="none" stroke="black" d="M100.68,-83.54C100.68,-83.54 100.68,-103.52 100.68,-103.52"/>
<polygon fill="black" stroke="black" points="97.18,-103.52 100.68,-113.52 104.18,-103.52 97.18,-103.52"/>
</g>
</g>
</svg>
