<?xml version="1.0" encoding="UTF-8" standalone="no"?>
<!DOCTYPE svg PUBLIC "-//W3C//DTD SVG 1.1//EN"
 "http://www.w3.org/Graphics/SVG/1.1/DTD/svg11.dtd">
<!-- Generated by graphviz version 3.0.0 (20220226.1711)
 -->
<!-- Title: dependencies Pages: 1 -->
<svg width="332pt" height="247pt"
 viewBox="0.00 0.00 332.00 246.80" xmlns="http://www.w3.org/2000/svg" xmlns:xlink="http://www.w3.org/1999/xlink">
<g id="graph0" class="graph" transform="scale(1 1) rotate(0) translate(4 242.8)">
<title>dependencies</title>
<polygon fill="white" stroke="transparent" points="-4,4 -4,-242.8 328,-242.8 328,4 -4,4"/>
<text text-anchor="middle" x="162" y="-8.2" font-family="sans-serif" font-size="14.00">dependencies</text>
<g id="clust1" class="cluster">
<title>cluster_MessageModule</title>
<polygon fill="none" stroke="black" stroke-dasharray="1,5" points="8,-32.8 8,-230.8 316,-230.8 316,-32.8 8,-32.8"/>
</g>
<g id="clust6" class="cluster">
<title>cluster_MessageModule_providers</title>
<polygon fill="none" stroke="black" points="144,-40.8 144,-92.8 308,-92.8 308,-40.8 144,-40.8"/>
</g>
<g id="clust4" class="cluster">
<title>cluster_MessageModule_exports</title>
<polygon fill="none" stroke="black" points="89,-170.8 89,-222.8 215,-222.8 215,-170.8 89,-170.8"/>
</g>
<g id="clust3" class="cluster">
<title>cluster_MessageModule_imports</title>
<polygon fill="none" stroke="black" points="16,-40.8 16,-92.8 136,-92.8 136,-40.8 16,-40.8"/>
</g>
<!-- ContactModule -->
<g id="node1" class="node">
<title>ContactModule</title>
<polygon fill="#8dd3c7" stroke="black" points="127.6,-84.8 124.6,-88.8 103.6,-88.8 100.6,-84.8 24.4,-84.8 24.4,-48.8 127.6,-48.8 127.6,-84.8"/>
<text text-anchor="middle" x="76" y="-62.6" font-family="Times,serif" font-size="14.00">ContactModule</text>
</g>
<!-- MessageModule -->
<g id="node2" class="node">
<title>MessageModule</title>
<polygon fill="#8dd3c7" stroke="black" points="206.04,-149.8 203.04,-153.8 182.04,-153.8 179.04,-149.8 97.96,-149.8 97.96,-113.8 206.04,-113.8 206.04,-149.8"/>
<text text-anchor="middle" x="152" y="-127.6" font-family="Times,serif" font-size="14.00">MessageModule</text>
</g>
<!-- ContactModule&#45;&gt;MessageModule -->
<g id="edge1" class="edge">
<title>ContactModule&#45;&gt;MessageModule</title>
<path fill="none" stroke="black" d="M112.64,-84.91C112.64,-84.91 112.64,-103.79 112.64,-103.79"/>
<polygon fill="black" stroke="black" points="109.14,-103.79 112.64,-113.79 116.14,-103.79 109.14,-103.79"/>
</g>
<!-- MessageService  -->
<g id="node3" class="node">
<title>MessageService </title>
<polygon fill="#fb8072" stroke="black" points="207.47,-214.8 96.53,-214.8 96.53,-178.8 207.47,-178.8 207.47,-214.8"/>
<text text-anchor="middle" x="152" y="-192.6" font-family="Times,serif" font-size="14.00">MessageService </text>
</g>
<!-- MessageModule&#45;&gt;MessageService  -->
<g id="edge2" class="edge">
<title>MessageModule&#45;&gt;MessageService </title>
<path fill="none" stroke="black" stroke-dasharray="5,2" d="M152,-149.91C152,-149.91 152,-168.79 152,-168.79"/>
<polygon fill="black" stroke="black" points="148.5,-168.79 152,-178.79 155.5,-168.79 148.5,-168.79"/>
</g>
<!-- MessageService -->
<g id="node4" class="node">
<title>MessageService</title>
<ellipse fill="#fdb462" stroke="black" cx="226" cy="-66.8" rx="73.57" ry="18"/>
<text text-anchor="middle" x="226" y="-62.6" font-family="Times,serif" font-size="14.00">MessageService</text>
</g>
<!-- MessageService&#45;&gt;MessageModule -->
<g id="edge3" class="edge">
<title>MessageService&#45;&gt;MessageModule</title>
<path fill="none" stroke="black" d="M179.24,-80.9C179.24,-80.9 179.24,-103.52 179.24,-103.52"/>
<polygon fill="black" stroke="black" points="175.74,-103.52 179.24,-113.52 182.74,-103.52 175.74,-103.52"/>
</g>
</g>
</svg>
