<?xml version="1.0" encoding="UTF-8" standalone="no"?>
<!DOCTYPE svg PUBLIC "-//W3C//DTD SVG 1.1//EN"
 "http://www.w3.org/Graphics/SVG/1.1/DTD/svg11.dtd">
<!-- Generated by graphviz version 3.0.0 (20220226.1711)
 -->
<!-- Title: dependencies Pages: 1 -->
<svg width="450pt" height="247pt"
 viewBox="0.00 0.00 450.00 246.80" xmlns="http://www.w3.org/2000/svg" xmlns:xlink="http://www.w3.org/1999/xlink">
<g id="graph0" class="graph" transform="scale(1 1) rotate(0) translate(4 242.8)">
<title>dependencies</title>
<polygon fill="white" stroke="transparent" points="-4,4 -4,-242.8 446,-242.8 446,4 -4,4"/>
<text text-anchor="middle" x="221" y="-8.2" font-family="sans-serif" font-size="14.00">dependencies</text>
<g id="clust1" class="cluster">
<title>cluster_SchedulerModule</title>
<polygon fill="none" stroke="black" stroke-dasharray="1,5" points="8,-32.8 8,-230.8 434,-230.8 434,-32.8 8,-32.8"/>
</g>
<g id="clust3" class="cluster">
<title>cluster_SchedulerModule_imports</title>
<polygon fill="none" stroke="black" points="198,-40.8 198,-92.8 426,-92.8 426,-40.8 198,-40.8"/>
</g>
<g id="clust4" class="cluster">
<title>cluster_SchedulerModule_exports</title>
<polygon fill="none" stroke="black" points="182,-170.8 182,-222.8 316,-222.8 316,-170.8 182,-170.8"/>
</g>
<g id="clust6" class="cluster">
<title>cluster_SchedulerModule_providers</title>
<polygon fill="none" stroke="black" points="16,-40.8 16,-92.8 190,-92.8 190,-40.8 16,-40.8"/>
</g>
<!-- MessageModule -->
<g id="node1" class="node">
<title>MessageModule</title>
<polygon fill="#8dd3c7" stroke="black" points="418.04,-84.8 415.04,-88.8 394.04,-88.8 391.04,-84.8 309.96,-84.8 309.96,-48.8 418.04,-48.8 418.04,-84.8"/>
<text text-anchor="middle" x="364" y="-62.6" font-family="Times,serif" font-size="14.00">MessageModule</text>
</g>
<!-- SchedulerModule -->
<g id="node3" class="node">
<title>SchedulerModule</title>
<polygon fill="#8dd3c7" stroke="black" points="306.53,-149.8 303.53,-153.8 282.53,-153.8 279.53,-149.8 191.47,-149.8 191.47,-113.8 306.53,-113.8 306.53,-149.8"/>
<text text-anchor="middle" x="249" y="-127.6" font-family="Times,serif" font-size="14.00">SchedulerModule</text>
</g>
<!-- MessageModule&#45;&gt;SchedulerModule -->
<g id="edge1" class="edge">
<title>MessageModule&#45;&gt;SchedulerModule</title>
<path fill="none" stroke="black" d="M309.76,-66.8C303.55,-66.8 299.38,-66.8 299.38,-66.8 299.38,-66.8 299.38,-103.69 299.38,-103.69"/>
<polygon fill="black" stroke="black" points="295.88,-103.69 299.38,-113.69 302.88,-103.69 295.88,-103.69"/>
</g>
<!-- UserModule -->
<g id="node2" class="node">
<title>UserModule</title>
<polygon fill="#8dd3c7" stroke="black" points="291.99,-84.8 288.99,-88.8 267.99,-88.8 264.99,-84.8 206.01,-84.8 206.01,-48.8 291.99,-48.8 291.99,-84.8"/>
<text text-anchor="middle" x="249" y="-62.6" font-family="Times,serif" font-size="14.00">UserModule</text>
</g>
<!-- UserModule&#45;&gt;SchedulerModule -->
<g id="edge2" class="edge">
<title>UserModule&#45;&gt;SchedulerModule</title>
<path fill="none" stroke="black" d="M249,-84.91C249,-84.91 249,-103.79 249,-103.79"/>
<polygon fill="black" stroke="black" points="245.5,-103.79 249,-113.79 252.5,-103.79 245.5,-103.79"/>
</g>
<!-- SchedulerService  -->
<g id="node4" class="node">
<title>SchedulerService </title>
<polygon fill="#fb8072" stroke="black" points="307.96,-214.8 190.04,-214.8 190.04,-178.8 307.96,-178.8 307.96,-214.8"/>
<text text-anchor="middle" x="249" y="-192.6" font-family="Times,serif" font-size="14.00">SchedulerService </text>
</g>
<!-- SchedulerModule&#45;&gt;SchedulerService  -->
<g id="edge3" class="edge">
<title>SchedulerModule&#45;&gt;SchedulerService </title>
<path fill="none" stroke="black" stroke-dasharray="5,2" d="M249,-149.91C249,-149.91 249,-168.79 249,-168.79"/>
<polygon fill="black" stroke="black" points="245.5,-168.79 249,-178.79 252.5,-168.79 245.5,-168.79"/>
</g>
<!-- SchedulerService -->
<g id="node5" class="node">
<title>SchedulerService</title>
<ellipse fill="#fdb462" stroke="black" cx="103" cy="-66.8" rx="78.71" ry="18"/>
<text text-anchor="middle" x="103" y="-62.6" font-family="Times,serif" font-size="14.00">SchedulerService</text>
</g>
<!-- SchedulerService&#45;&gt;SchedulerModule -->
<g id="edge4" class="edge">
<title>SchedulerService&#45;&gt;SchedulerModule</title>
<path fill="none" stroke="black" d="M181.96,-66.8C191.87,-66.8 198.62,-66.8 198.62,-66.8 198.62,-66.8 198.62,-103.69 198.62,-103.69"/>
<polygon fill="black" stroke="black" points="195.12,-103.69 198.62,-113.69 202.12,-103.69 195.12,-103.69"/>
</g>
</g>
</svg>
